<?xml version="1.0" encoding="UTF-8" standalone="no"?>
<!DOCTYPE svg PUBLIC "-//W3C//DTD SVG 1.1//EN"
 "http://www.w3.org/Graphics/SVG/1.1/DTD/svg11.dtd">
<!-- Generated by graphviz version 2.44.1 (20200629.0846)
 -->
<!-- Title: G Pages: 1 -->
<svg width="254pt" height="497pt"
 viewBox="0.00 0.00 254.00 496.74" xmlns="http://www.w3.org/2000/svg" xmlns:xlink="http://www.w3.org/1999/xlink">
<g id="graph0" class="graph" transform="scale(1 1) rotate(0) translate(4 492.74)">
<title>G</title>
<polygon fill="white" stroke="transparent" points="-4,4 -4,-492.74 250,-492.74 250,4 -4,4"/>
<!-- A -->
<g id="node1" class="node">
<title>A</title>
<ellipse fill="mediumslateblue" stroke="black" cx="83" cy="-461.87" rx="33.47" ry="26.74"/>
<text text-anchor="middle" x="83" y="-465.67" font-family="Times,serif" font-size="14.00">A</text>
<text text-anchor="middle" x="83" y="-450.67" font-family="Times,serif" font-size="14.00">name</text>
</g>
<!-- B -->
<g id="node2" class="node">
<title>B</title>
<ellipse fill="mediumslateblue" stroke="black" cx="83" cy="-366" rx="27" ry="18"/>
<text text-anchor="middle" x="83" y="-362.3" font-family="Times,serif" font-size="14.00">B</text>
</g>
<!-- A&#45;&gt;B -->
<g id="edge1" class="edge">
<title>A&#45;&gt;B</title>
<path fill="none" stroke="black" d="M83,-434.97C83,-422.34 83,-407.14 83,-394.32"/>
<polygon fill="black" stroke="black" points="83,-384.22 87.5,-394.22 83,-389.22 83,-394.22 83,-394.22 83,-394.22 83,-389.22 78.5,-394.22 83,-384.22 83,-384.22"/>
<text text-anchor="middle" x="133" y="-405.8" font-family="Times,serif" font-size="14.00"> foreach _students</text>
</g>
<!-- C -->
<g id="node3" class="node">
<title>C</title>
<ellipse fill="mediumslateblue" stroke="black" cx="36" cy="-279" rx="27" ry="18"/>
<text text-anchor="middle" x="36" y="-275.3" font-family="Times,serif" font-size="14.00">C</text>
</g>
<!-- B&#45;&gt;C -->
<g id="edge2" class="edge">
<title>B&#45;&gt;C</title>
<path fill="none" stroke="black" d="M73.94,-348.61C67.13,-336.3 57.69,-319.23 49.93,-305.19"/>
<polygon fill="black" stroke="black" points="44.87,-296.05 53.65,-302.62 47.29,-300.43 49.71,-304.8 49.71,-304.8 49.71,-304.8 47.29,-300.43 45.78,-306.98 44.87,-296.05 44.87,-296.05"/>
<text text-anchor="middle" x="88" y="-318.8" font-family="Times,serif" font-size="14.00"> var item</text>
</g>
<!-- D -->
<g id="node4" class="node">
<title>D</title>
<ellipse fill="mediumslateblue" stroke="black" cx="27" cy="-192" rx="27" ry="18"/>
<text text-anchor="middle" x="27" y="-188.3" font-family="Times,serif" font-size="14.00">D</text>
</g>
<!-- C&#45;&gt;D -->
<g id="edge3" class="edge">
<title>C&#45;&gt;D</title>
<path fill="none" stroke="black" d="M27.97,-261.66C25.55,-255.9 23.21,-249.3 22,-243 20.59,-235.66 20.68,-227.64 21.43,-220.21"/>
<polygon fill="black" stroke="black" points="22.83,-210.24 25.89,-220.77 22.14,-215.19 21.44,-220.14 21.44,-220.14 21.44,-220.14 22.14,-215.19 16.98,-219.51 22.83,-210.24 22.83,-210.24"/>
<text text-anchor="middle" x="72.5" y="-231.8" font-family="Times,serif" font-size="14.00"> ? Name == name</text>
</g>
<!-- E -->
<g id="node5" class="node">
<title>E</title>
<ellipse fill="mediumslateblue" stroke="black" cx="27" cy="-105" rx="27" ry="18"/>
<text text-anchor="middle" x="27" y="-101.3" font-family="Times,serif" font-size="14.00">E</text>
</g>
<!-- D&#45;&gt;E -->
<g id="edge4" class="edge">
<title>D&#45;&gt;E</title>
<path fill="none" stroke="black" d="M27,-173.8C27,-162.16 27,-146.55 27,-133.24"/>
<polygon fill="black" stroke="black" points="27,-123.18 31.5,-133.18 27,-128.18 27,-133.18 27,-133.18 27,-133.18 27,-128.18 22.5,-133.18 27,-123.18 27,-123.18"/>
<text text-anchor="middle" x="42" y="-144.8" font-family="Times,serif" font-size="14.00"> True</text>
</g>
<!-- F -->
<g id="node6" class="node">
<title>F</title>
<ellipse fill="mediumslateblue" stroke="black" cx="115" cy="-105" rx="27" ry="18"/>
<text text-anchor="middle" x="115" y="-101.3" font-family="Times,serif" font-size="14.00">F</text>
</g>
<!-- D&#45;&gt;F -->
<g id="edge5" class="edge">
<title>D&#45;&gt;F</title>
<path fill="none" stroke="black" d="M41.93,-176.58C55.92,-163.07 77.01,-142.7 92.94,-127.31"/>
<polygon fill="black" stroke="black" points="100.29,-120.21 96.23,-130.39 96.7,-123.68 93.1,-127.15 93.1,-127.15 93.1,-127.15 96.7,-123.68 89.97,-123.92 100.29,-120.21 100.29,-120.21"/>
<text text-anchor="middle" x="93.5" y="-144.8" font-family="Times,serif" font-size="14.00"> False</text>
</g>
<!-- G -->
<g id="node7" class="node">
<title>G</title>
<ellipse fill="mediumslateblue" stroke="black" cx="27" cy="-18" rx="27" ry="18"/>
<text text-anchor="middle" x="27" y="-14.3" font-family="Times,serif" font-size="14.00">G</text>
</g>
<!-- E&#45;&gt;G -->
<g id="edge7" class="edge">
<title>E&#45;&gt;G</title>
<path fill="none" stroke="black" d="M27,-86.8C27,-75.16 27,-59.55 27,-46.24"/>
<polygon fill="black" stroke="black" points="27,-36.18 31.5,-46.18 27,-41.18 27,-46.18 27,-46.18 27,-46.18 27,-41.18 22.5,-46.18 27,-36.18 27,-36.18"/>
<text text-anchor="middle" x="53" y="-57.8" font-family="Times,serif" font-size="14.00"> return Id</text>
</g>
<!-- F&#45;&gt;B -->
<g id="edge6" class="edge">
<title>F&#45;&gt;B</title>
<path fill="none" stroke="black" d="M119.72,-122.98C129.56,-161.72 148.79,-258.8 117,-330 114.67,-335.22 111.2,-340.12 107.36,-344.51"/>
<polygon fill="black" stroke="black" points="100.21,-351.81 104,-341.52 103.71,-348.24 107.21,-344.67 107.21,-344.67 107.21,-344.67 103.71,-348.24 110.43,-347.82 100.21,-351.81 100.21,-351.81"/>
<text text-anchor="middle" x="190" y="-231.8" font-family="Times,serif" font-size="14.00"> if have next student</text>
</g>
<!-- H -->
<g id="node8" class="node">
<title>H</title>
<ellipse fill="mediumslateblue" stroke="black" cx="115" cy="-18" rx="27" ry="18"/>
<text text-anchor="middle" x="115" y="-14.3" font-family="Times,serif" font-size="14.00">H</text>
</g>
<!-- F&#45;&gt;H -->
<g id="edge8" class="edge">
<title>F&#45;&gt;H</title>
<path fill="none" stroke="black" d="M115,-86.8C115,-75.16 115,-59.55 115,-46.24"/>
<polygon fill="black" stroke="black" points="115,-36.18 119.5,-46.18 115,-41.18 115,-46.18 115,-46.18 115,-46.18 115,-41.18 110.5,-46.18 115,-36.18 115,-36.18"/>
<text text-anchor="middle" x="169.5" y="-57.8" font-family="Times,serif" font-size="14.00"> return empty string</text>
</g>
</g>
</svg>
