<?xml version="1.0" encoding="UTF-8" standalone="no"?>
<!DOCTYPE svg PUBLIC "-//W3C//DTD SVG 1.1//EN"
 "http://www.w3.org/Graphics/SVG/1.1/DTD/svg11.dtd">
<!-- Generated by graphviz version 2.44.1 (20200629.0846)
 -->
<!-- Title: G Pages: 1 -->
<svg width="391pt" height="505pt"
 viewBox="0.00 0.00 391.00 504.74" xmlns="http://www.w3.org/2000/svg" xmlns:xlink="http://www.w3.org/1999/xlink">
<g id="graph0" class="graph" transform="scale(1 1) rotate(0) translate(4 500.74)">
<title>G</title>
<polygon fill="white" stroke="transparent" points="-4,4 -4,-500.74 387,-500.74 387,4 -4,4"/>
<!-- A -->
<g id="node1" class="node">
<title>A</title>
<ellipse fill="mediumslateblue" stroke="black" cx="136" cy="-469.87" rx="33.47" ry="26.74"/>
<text text-anchor="middle" x="136" y="-473.67" font-family="Times,serif" font-size="14.00">A</text>
<text text-anchor="middle" x="136" y="-458.67" font-family="Times,serif" font-size="14.00">name</text>
</g>
<!-- B -->
<g id="node2" class="node">
<title>B</title>
<ellipse fill="mediumslateblue" stroke="black" cx="136" cy="-374" rx="27" ry="18"/>
<text text-anchor="middle" x="136" y="-370.3" font-family="Times,serif" font-size="14.00">B</text>
</g>
<!-- A&#45;&gt;B -->
<g id="edge1" class="edge">
<title>A&#45;&gt;B</title>
<path fill="none" stroke="black" d="M136,-442.97C136,-430.34 136,-415.14 136,-402.32"/>
<polygon fill="black" stroke="black" points="136,-392.22 140.5,-402.22 136,-397.22 136,-402.22 136,-402.22 136,-402.22 136,-397.22 131.5,-402.22 136,-392.22 136,-392.22"/>
<text text-anchor="middle" x="182.5" y="-413.8" font-family="Times,serif" font-size="14.00"> foreach students</text>
</g>
<!-- C -->
<g id="node3" class="node">
<title>C</title>
<ellipse fill="mediumslateblue" stroke="black" cx="27" cy="-287" rx="27" ry="18"/>
<text text-anchor="middle" x="27" y="-283.3" font-family="Times,serif" font-size="14.00">C</text>
</g>
<!-- B&#45;&gt;C -->
<g id="edge2" class="edge">
<title>B&#45;&gt;C</title>
<path fill="none" stroke="black" d="M114.13,-363.33C101.21,-357.08 84.91,-348.21 72,-338 62.32,-330.35 52.97,-320.49 45.32,-311.56"/>
<polygon fill="black" stroke="black" points="38.81,-303.7 48.66,-308.53 42,-307.55 45.19,-311.41 45.19,-311.41 45.19,-311.41 42,-307.55 41.72,-314.28 38.81,-303.7 38.81,-303.7"/>
<text text-anchor="middle" x="97" y="-326.8" font-family="Times,serif" font-size="14.00"> var item</text>
</g>
<!-- H -->
<g id="node8" class="node">
<title>H</title>
<ellipse fill="mediumslateblue" stroke="black" cx="252" cy="-22" rx="18" ry="18"/>
<ellipse fill="none" stroke="black" cx="252" cy="-22" rx="22" ry="22"/>
<text text-anchor="middle" x="252" y="-18.3" font-family="Times,serif" font-size="14.00">H</text>
</g>
<!-- B&#45;&gt;H -->
<g id="edge8" class="edge">
<title>B&#45;&gt;H</title>
<path fill="none" stroke="black" d="M161.84,-368.64C200.78,-360.42 270,-338.69 270,-288 270,-288 270,-288 270,-112 270,-92.16 265.65,-70.31 261.22,-53.23"/>
<polygon fill="black" stroke="black" points="258.5,-43.27 265.48,-51.72 259.82,-48.09 261.14,-52.91 261.14,-52.91 261.14,-52.91 259.82,-48.09 256.8,-54.1 258.5,-43.27 258.5,-43.27"/>
<text text-anchor="middle" x="326.5" y="-203.8" font-family="Times,serif" font-size="14.00"> no more student</text>
<text text-anchor="middle" x="326.5" y="-188.8" font-family="Times,serif" font-size="14.00"> &#160;return empty string</text>
</g>
<!-- D -->
<g id="node4" class="node">
<title>D</title>
<ellipse fill="mediumslateblue" stroke="black" cx="35" cy="-200" rx="27" ry="18"/>
<text text-anchor="middle" x="35" y="-196.3" font-family="Times,serif" font-size="14.00">D</text>
</g>
<!-- C&#45;&gt;D -->
<g id="edge3" class="edge">
<title>C&#45;&gt;D</title>
<path fill="none" stroke="black" d="M17.81,-269.77C13.42,-259.98 9.75,-247.26 13,-236 14.11,-232.15 15.78,-228.32 17.71,-224.68"/>
<polygon fill="black" stroke="black" points="22.9,-216.12 21.56,-227.01 20.31,-220.4 17.72,-224.68 17.72,-224.68 17.72,-224.68 20.31,-220.4 13.87,-222.34 22.9,-216.12 22.9,-216.12"/>
<text text-anchor="middle" x="63.5" y="-239.8" font-family="Times,serif" font-size="14.00"> ? Name == name</text>
</g>
<!-- E -->
<g id="node5" class="node">
<title>E</title>
<ellipse fill="mediumslateblue" stroke="black" cx="43" cy="-113" rx="27" ry="18"/>
<text text-anchor="middle" x="43" y="-109.3" font-family="Times,serif" font-size="14.00">E</text>
</g>
<!-- D&#45;&gt;E -->
<g id="edge4" class="edge">
<title>D&#45;&gt;E</title>
<path fill="none" stroke="black" d="M34.59,-181.83C34.55,-172.16 34.81,-159.88 36,-149 36.28,-146.41 36.66,-143.73 37.1,-141.06"/>
<polygon fill="black" stroke="black" points="38.97,-131 41.56,-141.65 38.05,-135.91 37.14,-140.83 37.14,-140.83 37.14,-140.83 38.05,-135.91 32.71,-140 38.97,-131 38.97,-131"/>
<text text-anchor="middle" x="51" y="-152.8" font-family="Times,serif" font-size="14.00"> True</text>
</g>
<!-- F -->
<g id="node6" class="node">
<title>F</title>
<ellipse fill="mediumslateblue" stroke="black" cx="122" cy="-113" rx="27" ry="18"/>
<text text-anchor="middle" x="122" y="-109.3" font-family="Times,serif" font-size="14.00">F</text>
</g>
<!-- D&#45;&gt;F -->
<g id="edge5" class="edge">
<title>D&#45;&gt;F</title>
<path fill="none" stroke="black" d="M49.76,-184.58C63.59,-171.07 84.44,-150.7 100.19,-135.31"/>
<polygon fill="black" stroke="black" points="107.46,-128.21 103.45,-138.41 103.88,-131.7 100.31,-135.19 100.31,-135.19 100.31,-135.19 103.88,-131.7 97.16,-131.98 107.46,-128.21 107.46,-128.21"/>
<text text-anchor="middle" x="100.5" y="-152.8" font-family="Times,serif" font-size="14.00"> False</text>
</g>
<!-- G -->
<g id="node7" class="node">
<title>G</title>
<ellipse fill="mediumslateblue" stroke="black" cx="135" cy="-22" rx="18" ry="18"/>
<ellipse fill="none" stroke="black" cx="135" cy="-22" rx="22" ry="22"/>
<text text-anchor="middle" x="135" y="-18.3" font-family="Times,serif" font-size="14.00">G</text>
</g>
<!-- E&#45;&gt;G -->
<g id="edge7" class="edge">
<title>E&#45;&gt;G</title>
<path fill="none" stroke="black" d="M57.78,-97.7C72.49,-83.47 95.27,-61.43 112.28,-44.98"/>
<polygon fill="black" stroke="black" points="119.64,-37.86 115.58,-48.04 116.05,-41.33 112.45,-44.81 112.45,-44.81 112.45,-44.81 116.05,-41.33 109.33,-41.58 119.64,-37.86 119.64,-37.86"/>
<text text-anchor="middle" x="121" y="-65.8" font-family="Times,serif" font-size="14.00"> return Id</text>
</g>
<!-- F&#45;&gt;B -->
<g id="edge6" class="edge">
<title>F&#45;&gt;B</title>
<path fill="none" stroke="black" d="M122.92,-131.06C125.3,-175.03 131.65,-292.54 134.54,-345.93"/>
<polygon fill="black" stroke="black" points="135.08,-356.01 130.05,-346.26 134.81,-351.01 134.54,-346.02 134.54,-346.02 134.54,-346.02 134.81,-351.01 139.04,-345.78 135.08,-356.01 135.08,-356.01"/>
<text text-anchor="middle" x="189.5" y="-239.8" font-family="Times,serif" font-size="14.00"> &#160;&#160;if have next student</text>
</g>
<!-- G&#45;&gt;H -->
</g>
</svg>
